<svg xmlns="http://www.w3.org/2000/svg" viewBox="0 0 800 760"><defs><radialGradient id="bg"><stop stop-color="#f5b41b" stop-opacity=".35"/><stop offset="1" stop-color="#f5b41b" stop-opacity="0"/></radialGradient><linearGradient id="cup" x1="0" y1="0" x2="1" y2="1"><stop stop-color="#fff9f0"/><stop offset="1" stop-color="#c9a87d"/></linearGradient><linearGradient id="coffee"><stop stop-color="#2b0f07"/><stop offset="1" stop-color="#8b4a24"/></linearGradient></defs><circle cx="410" cy="390" r="330" fill="url(#bg)"/><g opacity=".9" fill="#9f5426"><ellipse cx="190" cy="190" rx="22" ry="12" transform="rotate(35 190 190)"/><ellipse cx="610" cy="140" rx="25" ry="13" transform="rotate(-25 610 140)"/><ellipse cx="650" cy="370" rx="22" ry="12" transform="rotate(40 650 370)"/><ellipse cx="140" cy="400" rx="24" ry="13" transform="rotate(-20 140 400)"/></g><path d="M170 300c90-170 400-180 500 15-80-70-185-20-250-5-78 18-155 13-250-10z" fill="#8b4a24" opacity=".55"/><path d="M236 300h390l-40 270c-8 56-44 85-101 85H362c-57 0-93-29-101-85z" fill="url(#cup)"/><ellipse cx="431" cy="300" rx="195" ry="55" fill="#ead9c3"/><ellipse cx="431" cy="300" rx="160" ry="38" fill="url(#coffee)"/><path d="M625 355c130 8 150 194 20 225-48 11-85-3-105-23l15-52c25 25 66 33 100 8 55-40 33-111-39-116z" fill="url(#cup)"/><ellipse cx="432" cy="650" rx="260" ry="38" fill="#130a07" opacity=".65"/><path d="M390 160c-35-58 50-76 10-136M460 175c-30-58 52-80 15-145" fill="none" stroke="#fff9f0" stroke-opacity=".5" stroke-width="12" stroke-linecap="round"/></svg>