<svg xmlns="http://www.w3.org/2000/svg" viewBox="0 0 1920 1080"><defs><radialGradient id="r"><stop stop-color="#8b4a24"/><stop offset=".5" stop-color="#24120b"/><stop offset="1" stop-color="#050403"/></radialGradient></defs><rect width="1920" height="1080" fill="url(#r)"/><circle cx="1350" cy="530" r="260" fill="#f5b41b" opacity=".08"/><path d="M1160 470h420l-48 320c-10 70-55 105-125 105h-74c-70 0-115-35-125-105z" fill="#e9d1ad"/><ellipse cx="1370" cy="470" rx="210" ry="55" fill="#f8ead6"/><ellipse cx="1370" cy="470" rx="165" ry="36" fill="#4a2618"/><path d="M1570 550c150 4 165 185 30 230" fill="none" stroke="#e9d1ad" stroke-width="55" stroke-linecap="round"/><g fill="#8b4a24"><ellipse cx="1020" cy="250" rx="28" ry="15" transform="rotate(30 1020 250)"/><ellipse cx="1570" cy="220" rx="28" ry="15" transform="rotate(-25 1570 220)"/><ellipse cx="1710" cy="410" rx="24" ry="13" transform="rotate(25 1710 410)"/></g></svg>